# xmcd
#
# Track frame offsets: 
#        150
#        14286
#        28307
#        42537
#        57185
#        69986
#        82767
#        96091
#        109537
#        124693
#        139987
#        154497
#        167148
#        183272
#        197207
#        211498
#        225284
#        240937
#        255658
#        267252
#        280194
#        293808
#        307775
#        321428
#        335933
#
# Disc length: 4669 seconds
#
# Revision: 1
# Processed by: cddbd v1.5.2PL0 Copyright (c) Steve Scherf et al.
# Submitted via: ExactAudioCopy v1.0b3
#
DISCID=67123b19
DTITLE=Beiderbecke, Bix - The Bix Beiderbecke Story [Disc 3 - Mississi
DTITLE=ppi Mud]
DYEAR=2003
DGENRE=Jazz
TTITLE0=Cryin' All Day
TTITLE1=A Good Man Is Hard To Find
TTITLE2=Since My Best Gal Turned Me Down
TTITLE3=Sugar
TTITLE4=Changes
TTITLE5=(What Are You Waiting For?) Mary
TTITLE6=Lonely Melody
TTITLE7=There'll Come A Time
TTITLE8=Jubilee
TTITLE9=San
TTITLE10=Mississippi Mud
TTITLE11=Back In Your Own Back Yard
TTITLE12=There Ain't No Sweet Man That's Worth The Salt Of My Tears
TTITLE13=Dardanella
TTITLE14=Love Nest
TTITLE15=From Monday On
TTITLE16=Mississippi Mud
TTITLE17=Sugar
TTITLE18=Coquette
TTITLE19=When
TTITLE20=Lovable
TTITLE21=Our Bungalow Of Dreams
TTITLE22=Lila
TTITLE23=Borneo
TTITLE24=My Pet
EXTD=
EXTT0=
EXTT1=
EXTT2=
EXTT3=
EXTT4=
EXTT5=
EXTT6=
EXTT7=
EXTT8=
EXTT9=
EXTT10=
EXTT11=
EXTT12=
EXTT13=
EXTT14=
EXTT15=
EXTT16=
EXTT17=
EXTT18=
EXTT19=
EXTT20=
EXTT21=
EXTT22=
EXTT23=
EXTT24=
PLAYORDER=
